<svg width="12" height="13" viewBox="0 0 12 13" fill="none" xmlns="http://www.w3.org/2000/svg">
<path d="M4.33347 2.16667H3.13347C2.38673 2.16667 2.01308 2.16667 1.72787 2.31199C1.47698 2.43982 1.27315 2.64365 1.14533 2.89453C1 3.17975 1 3.55339 1 4.30013V9.3668C1 10.1135 1 10.4867 1.14533 10.7719C1.27315 11.0228 1.47698 11.227 1.72787 11.3548C2.0128 11.5 2.38599 11.5 3.13127 11.5H8.20207C8.94733 11.5 9.32 11.5 9.60493 11.3548C9.8558 11.227 10.0603 11.0226 10.1881 10.7717C10.3333 10.4868 10.3333 10.114 10.3333 9.36873V8.16667M11 4.83333V1.5M11 1.5H7.66667M11 1.5L6.33333 6.16667" stroke="#4F5B93" stroke-width="1.5" stroke-linecap="round" stroke-linejoin="round"/>
</svg>
