<svg width="21" height="16" viewBox="0 0 21 16" fill="none" xmlns="http://www.w3.org/2000/svg">
<g clip-path="url(#clip0_114_5616)">
<path fill-rule="evenodd" clip-rule="evenodd" d="M18.914 1.32799C17.143 -0.442012 14.271 -0.442012 12.5 1.32799L8 5.82799L9.414 7.24199L13.914 2.74199C14.904 1.75199 16.51 1.75199 17.5 2.74199C18.49 3.73199 18.49 5.33799 17.5 6.32799L13 10.828L14.414 12.242L18.914 7.74199C20.684 5.97099 20.684 3.09899 18.914 1.32799Z" fill="white"/>
<path fill-rule="evenodd" clip-rule="evenodd" d="M6.32799 12.5C5.68799 13.143 4.75399 13.394 3.87799 13.16C3.00099 12.926 2.31699 12.241 2.08199 11.365C1.84799 10.489 2.09999 9.555 2.74199 8.915L7.24199 4.415L5.82799 3L1.32799 7.5C-0.442012 9.271 -0.442012 12.143 1.32799 13.914C3.09999 15.685 5.97099 15.685 7.74199 13.914L12.242 9.414L10.828 8L6.32799 12.5Z" fill="white"/>
</g>
<defs>
<clipPath id="clip0_114_5616">
<rect width="21" height="16" fill="white"/>
</clipPath>
</defs>
</svg>
